<svg width="428" height="145" viewBox="0 0 428 145" fill="none" xmlns="http://www.w3.org/2000/svg">
  <path d="M0 144.922L11.8889 143.371C23.7778 141.754 47.5556 138.653 71.3333 135.148C95.1111 131.643 118.889 127.868 142.667 114.252C166.444 100.636 190.222 77.3141 214 72.7979C237.778 68.2817 261.556 82.7065 285.333 83.448C309.111 84.2568 332.889 71.4498 356.667 73.1349C380.444 74.8201 404.222 90.9974 416.111 99.086L428 107.175V0H416.111C404.222 0 380.444 0 356.667 0C332.889 0 309.111 0 285.333 0C261.556 0 237.778 0 214 0C190.222 0 166.444 0 142.667 0C118.889 0 95.1111 0 71.3333 0C47.5556 0 23.7778 0 11.8889 0H0V144.922Z" fill="#000080"/>
</svg>